<svg width="100%" height="100%" viewBox="0 0 256 256" fill="none" xmlns="http://www.w3.org/2000/svg">
<g clip-path="url(#clip0)">
<path fill-rule="evenodd" clip-rule="evenodd" d="M121 73C121 69.6863 118.314 67 115 67L53 67C49.6863 67 47 64.3137 47 61V59C47 55.6863 49.6863 53 53 53L203 53C206.314 53 209 55.6863 209 59V61C209 64.3137 206.314 67 203 67L200 67C196.686 67 194 69.6863 194 73V94C194 97.3137 191.314 100 188 100H186C182.686 100 180 97.3137 180 94V73C180 69.6863 177.314 67 174 67L171 67C167.686 67 165 69.6863 165 73V142C165 145.314 162.314 148 159 148H157C153.686 148 151 145.314 151 142V73C151 69.6863 148.314 67 145 67L141 67C137.686 67 135 69.6863 135 73V183C135 186.314 137.686 189 141 189H203C206.314 189 209 191.686 209 195V197C209 200.314 206.314 203 203 203L53 203C49.6863 203 47 200.314 47 197V195C47 191.686 49.6863 189 53 189H56C59.3137 189 62 186.314 62 183V162C62 158.686 64.6863 156 68 156H70C73.3137 156 76 158.686 76 162V183C76 186.314 78.6863 189 82 189H85C88.3137 189 91 186.314 91 183V114C91 110.686 93.6863 108 97 108H99C102.314 108 105 110.686 105 114V183C105 186.314 107.686 189 111 189H115C118.314 189 121 186.314 121 183V73Z" fill="black"/>
</g>
<defs>
<clipPath id="clip0">
<rect width="100%" height="100%" fill="white"/>
</clipPath>
</defs>
</svg>
